<?xml version='1.0' encoding='UTF-8'?>
<svg x="0px" y="0px" viewBox="0 0 32 32" version="1.1" xmlns="http://www.w3.org/2000/svg" xmlns:xlink="http://www.w3.org/1999/xlink" xml:space="preserve" id="Layer_1" style="enable-background:new 0 0 32 32">
  <style type="text/css">
	.Yellow{fill:#FFB115;}
	.Red{fill:#D11C1C;}
	.Black{fill:#727272;}
	.Blue{fill:#1177D7;}
	.White{fill:#FFFFFF;}
	.Green{fill:#039C23;}
	.st0{opacity:0.75;}
	.st1{opacity:0.5;}
	.st2{opacity:0.25;}
	.st3{fill:#FFB115;}
</style>
  <g />
  <g id="IgnoreMasterFilters">
    <polygon points="0,2 24,2 24,6 14,16 14,26 10,30 10,16 0,6  " class="Black" />
    <path d="M24,16c-4.4,0-8,3.6-8,8s3.6,8,8,8s8-3.6,8-8S28.4,16,24,16z M18,24c0-3.3,2.7-6,6-6c1.3,0,2.5,0.4,3.5,1.1   l-8.4,8.4C18.4,26.5,18,25.3,18,24z M24,30c-1.3,0-2.5-0.4-3.5-1.1l8.4-8.4c0.7,1,1.1,2.2,1.1,3.5C30,27.3,27.3,30,24,30z" class="Red" />
  </g>
</svg>