<?xml version="1.0" encoding="UTF-8"?>
<svg version="1.1" viewBox="0 0 1036 1036" width="259" height="259" xmlns="http://www.w3.org/2000/svg">
<path transform="translate(0)" d="m0 0h1036v1036h-1036z" fill="#810B35"/>
<path transform="translate(254,233)" d="m0 0h227l12 21 10 21 11 29 8 27 6 30 3 25v21l-2 17-5 22-9 22-7 13-3-1-8-16-9-12-11-13-7-12-2-8-1-35v-73l2-2v-16l-4-8-5-4-5-1h-24l-7 2-4 4-3 5-1 4v13l3 4-1 103-2 10-6 12-8 10-9 10-9 15-4 12-1 5v307l4 8 8 6 5 1 48 1 13 2 6 4 5 6v6h-202l-1-4 6-8 6-4 13-2 47-1 9-3 6-5 3-7 1-7v-205l-2-13-4-6-7-5-26-7-18-7-16-8-17-12-10-9-8-7-9-11-9-12-10-17-8-19-6-22-3-21v-23l3-25 7-33 9-29 11-28 11-22 8-13z" fill="#FAF4F1"/>
<path transform="translate(629,565)" d="m0 0h11l8 4 10 9 7 12 1 3v11l-4 17-7 20-10 23-10 19-11 18-8 12-13 17-11 12-8 8-12 9-5 2h-6l-6-4-8-9-5-10-1-5v-13l3-21 4-15v-3l-14 22-12 16-11 13-4 5-11 8-2 1h-6l-8-7-5-11v-13l5-21 6-16 11-24 10-19 4-8-40 16-21 11-6 4-3 6-1 4-4-2-4-12v-7l5-5 7-4 15-7 22-8 20-5 14-2h11l7 3 4 4-1 5-14 27-15 31-10 24-4 11-2 9v4l6-1 12-12 12-17 10-15 12-19 14-23 10-17 12-26h7l8 4 3 3-1 7-13 29-12 28-8 21-8 24-2 9v13l2 3 7-1 10-8 11-12 14-19 15-23 12-21 8-15 10-23 5-18 1-5v-21l-3-5-5-3h-15l-1-2 3-3z" fill="#FAF4F1"/>
<path transform="translate(707,647)" d="m0 0 5 2 8 8v6l-8 16-10 21 1 1 8-10 5-6 7-6 7-8h2l1-3 8-7 8 1 8 4-1 7-10 23-2 7-1 8 5-2 7-7 7-8 9-14 8-14 10-13 6-5h9l8 4 4 5 1 2v8l-4 10-8 10-4 2h-12l-9 27 1 5 6-1 9-5 7-6 7-8 11-12 5-6 3 1-2 6-11 13-12 13-4 5-11 8-5 2-7-1-6-4-6-7-2-5v-12l-5 5-11 12-5 3-8-1-7-6-2-6v-10l2-9v-4l-16 17-11 14-9 12-7 11h-4l-4-5-2-5v-12l3-8-4 4-11 14-9 9h-7l-6-4-4-5v-11l4-15 8-20 8-18 3-4 11 1 7 3-1 5-11 21-9 21-3 12 6-2 7-8 10-12 11-15 8-15 11-23z" fill="#F9F3F0"/>
<path transform="translate(310,289)" d="m0 0h13l6 3 3 7 1 13v25l-2 12-5 5-4 1h-12l-1-2v-63z" fill="#810B35"/>
<path transform="translate(252,369)" d="m0 0h5l1 1 4 42 1 2 6-43 2-2 5 1 5 40 1 4 4-43 1-2h5l1 2-5 48-2 14-1 2h-5l-2-5-5-40-2 9-2 17-3 18-1 1h-5l-2-6-6-51z" fill="#810B35"/>
<path transform="translate(351,288)" d="m0 0 7 1 4 4 1 3v11l-5 9-2 3 1 7 3 6 2 1 2-6 4-2 1 4-4 8-1 1 1 8 3 6v3h-5l-2-5-5 3-2 2h-9l-5-5-2-6v-7l3-8 4-6 2-4-4-11-1-10 3-7z" fill="#810B35"/>
<path transform="translate(258,289)" d="m0 0h11l6 3 2 5v17l-2 4v5l2 7v25h-6l-2-30-8-1v30l-1 1h-5l-1-1v-64z" fill="#810B35"/>
<path transform="translate(300,369)" d="m0 0h5l1 1 1 26h7l1-26 1-1h6l1 4-1 62h-6l-1-1v-30l-9-1v31l-1 1h-5l-1-1v-64z" fill="#810B35"/>
<path transform="translate(285,289)" d="m0 0h17l1 1v5l-1 1-9 1-1 21h10l1 4-2 3h-8v23h9l1 5-2 2h-16l-1-1v-64z" fill="#810B35"/>
<path transform="translate(369,369)" d="m0 0h17l1 5-1 1-10 1 1 21 9 1v6l-9 1-1 23h10l1 4-3 3h-14l-2-2v-63z" fill="#810B35"/>
<path transform="translate(686,605)" d="m0 0 7 1 7 8-1 5-6 8-14 24-4-2-2-5v-11l4-13 8-14z" fill="#FAF4F1"/>
<path transform="translate(344,369)" d="m0 0h18l1 5-2 2h-4v58l-6 1-1-1-1-58-5-1-1-5z" fill="#810B35"/>
<path transform="translate(318,295)" d="m0 0 5 1 2 4 1 14v24l-1 8-4 3-4-1-1-1v-50z" fill="#FAF4F1"/>
<path transform="translate(331,369)" d="m0 0h5l1 1v64l-1 1h-5l-1-1v-64z" fill="#810B35"/>
<path transform="translate(262,295)" d="m0 0 7 1 1 2v16l-4 4-5-1v-21z" fill="#FAF4F1"/>
<path transform="translate(349,327)" d="m0 0h2l4 8 1 3v7l-5 4-5-1-1-2v-10z" fill="#FAF4F1"/>
<path transform="translate(808,660)" d="m0 0 3 1-4 10-6 9-3 3-4 1 1-5 6-10z" fill="#810B35"/>
<path transform="translate(351,294)" d="m0 0 5 1 1 2v10l-3 5-4-2-1-3v-10z" fill="#FAF4F1"/>
</svg>
